<svg id="Capa_1" data-name="Capa 1" xmlns="http://www.w3.org/2000/svg" viewBox="0 0 167.7 167.7"><defs><style>.cls-1{fill-rule:evenodd;}</style></defs><path class="cls-1" d="M83.85,2.41A83.5,83.5,0,0,0,57.44,165.13c4.18.73,5.74-1.77,5.74-4,0-2-.1-8.55-.1-15.55-21,3.86-26.41-5.11-28.08-9.81-.94-2.4-5-9.81-8.56-11.79-2.92-1.57-7.09-5.43-.1-5.54,6.57-.1,11.27,6.06,12.84,8.56,7.51,12.63,19.52,9.08,24.32,6.89.73-5.43,2.92-9.08,5.32-11.17-18.58-2.08-38-9.29-38-41.22a32.46,32.46,0,0,1,8.56-22.44C38.55,57,35.63,48.44,40.22,37c0,0,7-2.19,23,8.56a78.67,78.67,0,0,1,41.75,0c16-10.86,23-8.56,23-8.56,4.59,11.48,1.67,20,.83,22.13a32.3,32.3,0,0,1,8.56,22.44c0,32-19.52,39.14-38.1,41.22,3,2.61,5.64,7.62,5.64,15.45,0,11.17-.11,20.15-.11,23,0,2.2,1.57,4.81,5.75,4A83.54,83.54,0,0,0,83.85,2.41Z"/></svg>