<svg id="Capa_1" data-name="Capa 1" xmlns="http://www.w3.org/2000/svg" viewBox="0 0 167.7 167.7"><path d="M83.85.35a83.5,83.5,0,1,0,83.5,83.5A83.49,83.49,0,0,0,83.85.35ZM135.5,105.27a38.23,38.23,0,0,1-2.41,12.62,26.66,26.66,0,0,1-15.2,15.2,38.16,38.16,0,0,1-12.61,2.41c-5.55.25-7.32.31-21.43.31s-15.88-.06-21.42-.31a38.16,38.16,0,0,1-12.61-2.41,25.64,25.64,0,0,1-9.21-6,25.31,25.31,0,0,1-6-9.2,38.2,38.2,0,0,1-2.42-12.62c-.25-5.54-.31-7.31-.31-21.42S32,68,32.2,62.43a38.2,38.2,0,0,1,2.42-12.62,26.58,26.58,0,0,1,15.2-15.2A38.16,38.16,0,0,1,62.43,32.2c5.54-.25,7.31-.31,21.43-.31s15.88.06,21.42.31a38.16,38.16,0,0,1,12.61,2.41,26.66,26.66,0,0,1,15.2,15.2,38.18,38.18,0,0,1,2.41,12.62c.25,5.54.31,7.31.31,21.42S135.75,99.73,135.5,105.27Z"/><path d="M83.85,66.53a17.32,17.32,0,1,0,17.32,17.32A17.32,17.32,0,0,0,83.85,66.53Z"/><path d="M124.37,53.2a17.16,17.16,0,0,0-9.87-9.86,28.74,28.74,0,0,0-9.65-1.79c-5.48-.25-7.13-.3-21-.3s-15.51,0-21,.3a28.48,28.48,0,0,0-9.65,1.79,17.11,17.11,0,0,0-9.86,9.86,28.8,28.8,0,0,0-1.79,9.65c-.25,5.48-.3,7.12-.3,21s.05,15.52.3,21a28.48,28.48,0,0,0,1.79,9.65,15.91,15.91,0,0,0,3.88,6,16.17,16.17,0,0,0,6,3.89,28.74,28.74,0,0,0,9.65,1.79c5.47.25,7.12.3,21,.3s15.52,0,21-.3a28.74,28.74,0,0,0,9.65-1.79,17.24,17.24,0,0,0,9.87-9.86,29.07,29.07,0,0,0,1.78-9.65c.25-5.48.3-7.12.3-21s0-15.52-.3-21A28.81,28.81,0,0,0,124.37,53.2ZM83.85,110.53a26.68,26.68,0,1,1,26.68-26.68A26.68,26.68,0,0,1,83.85,110.53Zm27.74-48.18a6.24,6.24,0,0,1,0-12.47h0a6.24,6.24,0,1,1,0,12.47Z"/></svg>