<svg id="Capa_1" data-name="Capa 1" xmlns="http://www.w3.org/2000/svg" viewBox="0 0 167.7 167.7"><path fill="white" d="M83.85.35a83.5,83.5,0,1,0,83.5,83.5A83.49,83.49,0,0,0,83.85.35ZM60.55,120.49H42.25v-55h18.3ZM51.4,57.93h-.12c-6.14,0-10.11-4.23-10.11-9.51s4.1-9.51,10.35-9.51S61.64,43,61.76,48.42,57.78,57.93,51.4,57.93Zm75.13,62.56h-18.3V91c0-7.4-2.65-12.45-9.27-12.45-5,0-8.06,3.41-9.39,6.7a12.58,12.58,0,0,0-.6,4.46v30.74H70.68s.24-49.88,0-55H89v7.8c2.43-3.75,6.78-9.09,16.49-9.09,12,0,21.07,7.87,21.07,24.78Z"/><path d="M89,73.43v-.19l-.12.19Z"/></svg>